<svg width="289" height="43" viewBox="0 0 289 43" fill="none" xmlns="http://www.w3.org/2000/svg">
	<path d="M30.2522 33C37.7082 33 42.7642 30.6 42.7642 22.056C42.7642 13.768 37.7722 11.176 30.2522 11.176H9.00425V33H30.2522ZM15.5002 16.744H29.6442C34.1562 16.744 36.0442 17.8 36.0442 22.056C36.0442 26.376 34.1562 27.432 29.6442 27.432H15.5002V16.744ZM62.5267 33.448C75.0387 33.448 80.4467 29.896 80.4467 22.088C80.4467 14.28 75.0387 10.728 62.5267 10.728C50.0147 10.728 44.6067 14.28 44.6067 22.088C44.6067 29.896 50.0147 33.448 62.5267 33.448ZM62.5267 27.88C53.7587 27.88 51.1027 26.312 51.1027 22.088C51.1027 17.864 53.7587 16.296 62.5267 16.296C71.2627 16.296 73.8227 17.864 73.8227 22.088C73.8227 26.312 71.2627 27.88 62.5267 27.88ZM89.454 33V27.848L95.822 23.656L106.062 33H114.67L100.878 20.424L114.03 11.176H105.102L93.294 18.984L89.454 22.088V11.176H82.958V33H89.454ZM141.249 21.448C141.249 26.12 138.433 27.816 131.969 27.816C125.505 27.816 122.689 26.12 122.689 21.448V11.176H116.193V22.824C116.193 30.28 122.337 33.352 131.969 33.352C141.601 33.352 147.745 30.28 147.745 22.824V11.176H141.249V21.448ZM175.578 33H183.45L169.242 11.176H160.602L146.362 33H154.17L156.826 28.776H172.954L175.578 33ZM159.642 24.264L164.89 15.88L170.106 24.264H159.642ZM190.994 33V26.664H199.282L207.122 33H215.282L208.114 27.368L206.386 26.312L207.794 26.28C212.626 25.896 215.474 23.592 215.474 18.792C215.474 13.064 211.73 11.176 206.354 11.176H184.498V33H190.994ZM190.994 16.744H205.714C207.858 16.744 208.754 17.352 208.754 19.304C208.754 21.096 207.858 21.8 205.714 21.8H190.994V16.744ZM229.769 16.744V33H236.265V16.744H249.193V11.176H216.809V16.744H229.769ZM280.517 26.792C280.517 22.28 277.701 20.104 271.429 19.752L259.525 19.048C257.541 18.92 256.709 18.728 256.709 17.512C256.709 16.2 257.573 15.88 263.461 15.88C268.933 15.88 274.693 16.488 278.405 17.224L279.461 12.328C275.141 11.4 268.837 10.792 264.965 10.792C254.853 10.792 250.565 12.776 250.565 17.672C250.565 21.736 253.029 23.912 259.813 24.232L271.877 24.936C273.573 25.096 274.373 25.256 274.373 26.6C274.373 27.912 273.445 28.328 268.325 28.328C261.765 28.328 256.325 27.464 251.845 26.472L250.917 31.688C254.853 32.648 261.157 33.416 266.597 33.416C277.381 33.416 280.517 31.4 280.517 26.792Z" fill="#fff" />
</svg>
