<svg width="198" height="28" viewBox="0 0 198 28" fill="none" xmlns="http://www.w3.org/2000/svg">
<path d="M20.4547 22C25.5807 22 29.0567 20.35 29.0567 14.476C29.0567 8.778 25.6247 6.996 20.4547 6.996H5.84667V22H20.4547ZM10.3127 10.824H20.0367C23.1387 10.824 24.4367 11.55 24.4367 14.476C24.4367 17.446 23.1387 18.172 20.0367 18.172H10.3127V10.824ZM42.6434 22.308C51.2454 22.308 54.9634 19.866 54.9634 14.498C54.9634 9.13 51.2454 6.688 42.6434 6.688C34.0414 6.688 30.3234 9.13 30.3234 14.498C30.3234 19.866 34.0414 22.308 42.6434 22.308ZM42.6434 18.48C36.6154 18.48 34.7894 17.402 34.7894 14.498C34.7894 11.594 36.6154 10.516 42.6434 10.516C48.6494 10.516 50.4094 11.594 50.4094 14.498C50.4094 17.402 48.6494 18.48 42.6434 18.48ZM61.1559 22V18.458L65.5339 15.576L72.5739 22H78.4919L69.0099 13.354L78.0519 6.996H71.9139L63.7959 12.364L61.1559 14.498V6.996H56.6899V22H61.1559ZM96.7649 14.058C96.7649 17.27 94.8289 18.436 90.3849 18.436C85.9409 18.436 84.0049 17.27 84.0049 14.058V6.996H79.5389V15.004C79.5389 20.13 83.7629 22.242 90.3849 22.242C97.0069 22.242 101.231 20.13 101.231 15.004V6.996H96.7649V14.058ZM120.366 22H125.778L116.01 6.996H110.07L100.28 22H105.648L107.474 19.096H118.562L120.366 22ZM109.41 15.994L113.018 10.23L116.604 15.994H109.41ZM130.965 22V17.644H136.663L142.053 22H147.663L142.735 18.128L141.547 17.402L142.515 17.38C145.837 17.116 147.795 15.532 147.795 12.232C147.795 8.294 145.221 6.996 141.525 6.996H126.499V22H130.965ZM130.965 10.824H141.085C142.559 10.824 143.175 11.242 143.175 12.584C143.175 13.816 142.559 14.3 141.085 14.3H130.965V10.824ZM157.623 10.824V22H162.089V10.824H170.977V6.996H148.713V10.824H157.623ZM192.512 17.732C192.512 14.63 190.576 13.134 186.264 12.892L178.08 12.408C176.716 12.32 176.144 12.188 176.144 11.352C176.144 10.45 176.738 10.23 180.786 10.23C184.548 10.23 188.508 10.648 191.06 11.154L191.786 7.788C188.816 7.15 184.482 6.732 181.82 6.732C174.868 6.732 171.92 8.096 171.92 11.462C171.92 14.256 173.614 15.752 178.278 15.972L186.572 16.456C187.738 16.566 188.288 16.676 188.288 17.6C188.288 18.502 187.65 18.788 184.13 18.788C179.62 18.788 175.88 18.194 172.8 17.512L172.162 21.098C174.868 21.758 179.202 22.286 182.942 22.286C190.356 22.286 192.512 20.9 192.512 17.732Z" fill="black"/>
</svg>
